<svg width="184" height="16" viewBox="0 0 184 16" fill="none" xmlns="http://www.w3.org/2000/svg">
<path d="M0.36 15.0001V1.00009H5.68C6.81333 1.00009 7.75333 1.19342 8.5 1.58009C9.24667 1.96676 9.8 2.49342 10.16 3.16009C10.5333 3.81342 10.72 4.56009 10.72 5.40009C10.72 6.17342 10.54 6.89342 10.18 7.56009C9.83333 8.21342 9.28667 8.74676 8.54 9.16009C7.79333 9.57342 6.84 9.78009 5.68 9.78009H3.16V15.0001H0.36ZM3.16 7.52009H5.5C6.34 7.52009 6.94 7.32676 7.3 6.94009C7.67333 6.55342 7.86 6.04009 7.86 5.40009C7.86 4.73342 7.67333 4.21342 7.3 3.84009C6.94 3.46676 6.34 3.28009 5.5 3.28009H3.16V7.52009ZM10.3775 15.0001L15.4775 1.00009H18.6575L23.7575 15.0001H20.7975L17.0575 4.18009L13.2975 15.0001H10.3775ZM12.6175 11.8601L13.3575 9.68009H20.5575L21.2775 11.8601H12.6175ZM25.5553 15.0001V1.00009H28.3553L34.6953 10.5001V1.00009H37.4953V15.0001H34.6953L28.3553 5.52009V15.0001H25.5553ZM43.4833 15.0001V3.26009H39.4033V1.00009H50.3433V3.26009H46.2633V15.0001H43.4833ZM61.055 15.0001V1.00009H63.855V15.0001H61.055ZM52.235 15.0001V1.00009H55.035V15.0001H52.235ZM54.675 8.98009V6.72009H61.515V8.98009H54.675ZM65.6509 15.0001L70.7509 1.00009H73.9309L79.0309 15.0001H76.0709L72.3309 4.18009L68.5709 15.0001H65.6509ZM67.8909 11.8601L68.6309 9.68009H75.8309L76.5509 11.8601H67.8909ZM80.8288 15.0001V1.00009H86.1288C87.2621 1.00009 88.1954 1.19342 88.9288 1.58009C89.6754 1.96676 90.2288 2.48676 90.5888 3.14009C90.9621 3.78009 91.1488 4.50009 91.1488 5.30009C91.1488 6.04676 90.9688 6.74676 90.6088 7.40009C90.2621 8.05342 89.7154 8.58009 88.9688 8.98009C88.2221 9.36676 87.2688 9.56009 86.1088 9.56009H83.6288V15.0001H80.8288ZM88.0688 15.0001L85.2088 8.86009H88.2488L91.2688 15.0001H88.0688ZM83.6288 7.52009H85.9688C86.7554 7.52009 87.3354 7.32676 87.7088 6.94009C88.0954 6.55342 88.2888 6.04009 88.2888 5.40009C88.2888 4.77342 88.1021 4.27342 87.7288 3.90009C87.3554 3.52676 86.7621 3.34009 85.9488 3.34009H83.6288V7.52009ZM98.153 15.0001V1.00009H100.953V15.0001H98.153ZM103.68 15.0001V1.00009H106.48L112.82 10.5001V1.00009H115.62V15.0001H112.82L106.48 5.52009V15.0001H103.68ZM118.348 15.0001V1.00009H127.528V3.26009H121.148V6.88009H126.228V9.08009H121.148V15.0001H118.348ZM135.981 15.2401C134.621 15.2401 133.421 14.9334 132.381 14.3201C131.341 13.7068 130.521 12.8601 129.921 11.7801C129.334 10.6868 129.041 9.42676 129.041 8.00009C129.041 6.57342 129.334 5.32009 129.921 4.24009C130.521 3.14676 131.341 2.29342 132.381 1.68009C133.421 1.06676 134.621 0.760091 135.981 0.760091C137.354 0.760091 138.561 1.06676 139.601 1.68009C140.654 2.29342 141.467 3.14676 142.041 4.24009C142.627 5.32009 142.921 6.57342 142.921 8.00009C142.921 9.42676 142.627 10.6868 142.041 11.7801C141.467 12.8601 140.654 13.7068 139.601 14.3201C138.561 14.9334 137.354 15.2401 135.981 15.2401ZM135.981 12.7201C136.821 12.7201 137.547 12.5268 138.161 12.1401C138.774 11.7534 139.247 11.2134 139.581 10.5201C139.914 9.81342 140.081 8.97342 140.081 8.00009C140.081 7.02676 139.914 6.19342 139.581 5.50009C139.247 4.79342 138.774 4.24676 138.161 3.86009C137.547 3.47342 136.821 3.28009 135.981 3.28009C135.154 3.28009 134.434 3.47342 133.821 3.86009C133.221 4.24676 132.747 4.79342 132.401 5.50009C132.067 6.19342 131.901 7.02676 131.901 8.00009C131.901 8.97342 132.067 9.81342 132.401 10.5201C132.747 11.2134 133.221 11.7534 133.821 12.1401C134.434 12.5268 135.154 12.7201 135.981 12.7201ZM154.024 15.0001V1.00009H156.824V15.0001H154.024ZM145.204 15.0001V1.00009H148.004V15.0001H145.204ZM147.644 8.98009V6.72009H154.484V8.98009H147.644ZM165 15.2401C163.96 15.2401 163.02 15.0334 162.18 14.6201C161.34 14.2068 160.666 13.5868 160.16 12.7601C159.666 11.9201 159.42 10.8601 159.42 9.58009V1.00009H162.22V9.60009C162.22 10.2801 162.333 10.8468 162.56 11.3001C162.786 11.7534 163.106 12.1001 163.52 12.3401C163.946 12.5668 164.46 12.6801 165.06 12.6801C165.66 12.6801 166.166 12.5668 166.58 12.3401C167.006 12.1001 167.333 11.7534 167.56 11.3001C167.786 10.8468 167.9 10.2801 167.9 9.60009V1.00009H170.7V9.58009C170.7 10.8601 170.44 11.9201 169.92 12.7601C169.413 13.5868 168.726 14.2068 167.86 14.6201C166.993 15.0334 166.04 15.2401 165 15.2401ZM173.27 15.0001V1.00009H179.09C180.063 1.00009 180.883 1.15342 181.55 1.46009C182.217 1.76676 182.723 2.19342 183.07 2.74009C183.417 3.27342 183.59 3.90009 183.59 4.62009C183.59 5.31342 183.437 5.90009 183.13 6.38009C182.823 6.86009 182.417 7.23342 181.91 7.50009C181.417 7.75342 180.87 7.90009 180.27 7.94009L180.59 7.72009C181.23 7.74676 181.797 7.92009 182.29 8.24009C182.797 8.56009 183.19 8.98009 183.47 9.50009C183.763 10.0068 183.91 10.5668 183.91 11.1801C183.91 11.9268 183.73 12.5934 183.37 13.1801C183.01 13.7534 182.483 14.2001 181.79 14.5201C181.11 14.8401 180.277 15.0001 179.29 15.0001H173.27ZM176.07 12.7201H178.85C179.557 12.7201 180.103 12.5601 180.49 12.2401C180.877 11.9068 181.07 11.4401 181.07 10.8401C181.07 10.2401 180.87 9.76676 180.47 9.42009C180.07 9.07342 179.517 8.90009 178.81 8.90009H176.07V12.7201ZM176.07 6.82009H178.63C179.31 6.82009 179.83 6.66676 180.19 6.36009C180.55 6.04009 180.73 5.59342 180.73 5.02009C180.73 4.46009 180.55 4.02676 180.19 3.72009C179.83 3.40009 179.303 3.24009 178.61 3.24009H176.07V6.82009Z" fill="black"/>
</svg>
